<?xml version="1.0" encoding="UTF-8"?><svg xmlns="http://www.w3.org/2000/svg" xmlns:xlink="http://www.w3.org/1999/xlink" fill-opacity="1" color-rendering="auto" color-interpolation="auto" text-rendering="auto" stroke="black" stroke-linecap="square" width="605" stroke-miterlimit="10" shape-rendering="auto" stroke-opacity="1" fill="black" stroke-dasharray="none" font-weight="normal" stroke-width="1" height="774" font-family="'Dialog'" font-style="normal" stroke-linejoin="miter" font-size="12px" stroke-dashoffset="0" image-rendering="auto">
  <!--Generated by ySVG 2.5-->
  <defs id="genericDefs"/>
  <g>
    <defs id="defs1">
      <clipPath clipPathUnits="userSpaceOnUse" id="clipPath1">
        <path d="M0 0 L605 0 L605 774 L0 774 L0 0 Z"/>
      </clipPath>
      <clipPath clipPathUnits="userSpaceOnUse" id="clipPath2">
        <path d="M623 -33 L1228 -33 L1228 741 L623 741 L623 -33 Z"/>
      </clipPath>
      <clipPath clipPathUnits="userSpaceOnUse" id="clipPath3">
        <path d="M199.0688 358.818 L485.7595 358.818 L485.7595 664.8513 L199.0688 664.8513 L199.0688 358.818 Z"/>
      </clipPath>
      <clipPath clipPathUnits="userSpaceOnUse" id="clipPath4">
        <path d="M205.026 269.2228 L471.1646 269.2228 L471.1646 605.8943 L205.026 605.8943 L205.026 269.2228 Z"/>
      </clipPath>
      <clipPath clipPathUnits="userSpaceOnUse" id="clipPath5">
        <path d="M168.4014 114.4934 L529.5207 114.4934 L529.5207 576.4714 L168.4014 576.4714 L168.4014 114.4934 Z"/>
      </clipPath>
      <clipPath clipPathUnits="userSpaceOnUse" id="clipPath6">
        <path d="M261.2691 170.5716 L475.0376 170.5716 L475.0376 434.213 L261.2691 434.213 L261.2691 170.5716 Z"/>
      </clipPath>
      <clipPath clipPathUnits="userSpaceOnUse" id="clipPath7">
        <path d="M218.1475 357.6404 L449.7341 357.6404 L449.7341 684.1733 L218.1475 684.1733 L218.1475 357.6404 Z"/>
      </clipPath>
      <clipPath clipPathUnits="userSpaceOnUse" id="clipPath8">
        <path d="M178.8209 170.5716 L392.5894 170.5716 L392.5894 434.213 L178.8209 434.213 L178.8209 170.5716 Z"/>
      </clipPath>
      <clipPath clipPathUnits="userSpaceOnUse" id="clipPath9">
        <path d="M161.5647 290.017 L327.0799 290.017 L327.0799 501.761 L161.5647 501.761 L161.5647 290.017 Z"/>
      </clipPath>
      <clipPath clipPathUnits="userSpaceOnUse" id="clipPath10">
        <path d="M79.6882 312.9955 L338.2896 312.9955 L338.2896 643.8234 L79.6882 643.8234 L79.6882 312.9955 Z"/>
      </clipPath>
    </defs>
    <g fill="white" text-rendering="geometricPrecision" shape-rendering="geometricPrecision" transform="translate(-623,33)" stroke="white">
      <rect x="623" width="605" height="774" y="-33" clip-path="url(#clipPath2)" stroke="none"/>
    </g>
    <g text-rendering="geometricPrecision" shape-rendering="geometricPrecision" transform="matrix(2.1103,0,0,2.5291,-420.0926,-907.4999)">
      <g clip-path="url(#clipPath3)">
        <svg opacity="1" writing-mode="lr-tb" stop-color="rgb(0, 0, 0)" shape-rendering="auto" glyph-orientation-horizontal="0deg" color-profile="auto" lighting-color="rgb(255, 255, 255)" color="rgb(0, 0, 0)" font-weight="400" alignment-baseline="auto" font-style="normal" version="1.1" color-interpolation-filters="linearrgb" text-anchor="start" stroke-linecap="butt" color-interpolation="srgb" font-variant="normal" word-spacing="normal" fill-opacity="1" text-rendering="auto" clip-path="none" text-decoration="none" letter-spacing="normal" glyph-orientation-vertical="auto" display="inline" font-size-adjust="none" fill="rgb(0, 0, 0)" overflow="visible" font-stretch="normal" stroke-dasharray="none" stroke-miterlimit="4" stop-opacity="1" color-rendering="auto" font-size="12" mask="none" direction="ltr" baseline-shift="baseline" pointer-events="visiblepainted" enable-background="accumulate" fill-rule="nonzero" image-rendering="auto" stroke-dashoffset="0" width="612.0000000000" marker-end="none" clip="auto" cursor="auto" stroke="none" filter="none" visibility="visible" kerning="auto" stroke-width="1" font-family="&quot;Arial&quot;,&quot;Helvetica&quot;,sans-serif" flood-opacity="1" clip-rule="nonzero" src="none" height="792.0000000000" unicode-bidi="normal" stroke-linejoin="miter" stroke-opacity="1" flood-color="rgb(0, 0, 0)" dominant-baseline="auto" marker-start="none" marker-mid="none">
  <title><![CDATA[Cloud]]></title>
  <g transform=" scale(1.000000) ">
    <!--converted by libvisio2svg-->
    <g transform=" translate(257.286600,367.653500) ">
      <!--emf-blob start-->
      <g transform="translate(-314.4229, 505.7337)">
        <path stroke-linecap="butt" fill="#FFFFFF" stroke-linejoin="miter" d="M 348.3746,-499.2385 C 331.5464,-502.4861 322.3941,-493.9244 323.8703,-486.2483 C 323.8703,-485.9531 323.8703,-485.9531 323.8703,-485.9531 C 310.5848,-483.5912 314.1276,-467.9439 320.6227,-467.9439 C 321.2132,-467.9439 321.2132,-467.9439 321.2132,-467.9439 C 319.4418,-460.5631 335.0891,-453.1822 343.6509,-457.0203 C 344.2414,-457.6107 344.2414,-457.6107 344.2414,-457.6107 C 347.1937,-450.8204 358.4125,-449.9347 369.0409,-449.6394 C 378.4884,-449.3442 383.8025,-449.9347 387.9358,-454.0679 C 388.5263,-454.0679 388.5263,-454.0679 388.5263,-454.0679 C 403.5831,-452.8870 410.3735,-463.2201 407.1259,-470.6010 C 408.0116,-470.8962 408.0116,-470.8962 408.0116,-470.8962 C 413.0306,-472.0771 413.6211,-483.8864 404.7641,-485.6578 C 405.0593,-486.2483 405.0593,-486.2483 405.0593,-486.2483 C 408.8973,-493.9244 399.7451,-501.0099 387.3453,-499.8290 C 386.4596,-500.1242 386.4596,-500.1242 386.4596,-500.1242 C 377.6027,-508.3908 351.9174,-506.9146 348.9651,-498.9433 Z " stroke="#0F73A0" stroke-width="1px" stroke-miterlimit="3.5428"/>
      </g>
      <!--emf-blob end-->
    </g>
  </g>
</svg>
      </g>
    </g>
    <g text-rendering="geometricPrecision" shape-rendering="geometricPrecision" transform="matrix(2.2733,0,0,2.299,-466.0756,-618.937)">
      <g clip-path="url(#clipPath4)">
        <svg opacity="1" writing-mode="lr-tb" stop-color="rgb(0, 0, 0)" shape-rendering="auto" glyph-orientation-horizontal="0deg" color-profile="auto" lighting-color="rgb(255, 255, 255)" color="rgb(0, 0, 0)" font-weight="400" alignment-baseline="auto" font-style="normal" version="1.1" color-interpolation-filters="linearrgb" text-anchor="start" stroke-linecap="butt" color-interpolation="srgb" font-variant="normal" word-spacing="normal" fill-opacity="1" text-rendering="auto" clip-path="none" text-decoration="none" letter-spacing="normal" glyph-orientation-vertical="auto" display="inline" font-size-adjust="none" fill="rgb(0, 0, 0)" overflow="visible" font-stretch="normal" stroke-dasharray="none" stroke-miterlimit="4" stop-opacity="1" color-rendering="auto" font-size="12" mask="none" direction="ltr" baseline-shift="baseline" pointer-events="visiblepainted" enable-background="accumulate" fill-rule="nonzero" image-rendering="auto" stroke-dashoffset="0" width="612.0000000000" marker-end="none" clip="auto" cursor="auto" stroke="none" filter="none" visibility="visible" kerning="auto" stroke-width="1" font-family="&quot;Arial&quot;,&quot;Helvetica&quot;,sans-serif" flood-opacity="1" clip-rule="nonzero" src="none" height="792.0000000000" unicode-bidi="normal" stroke-linejoin="miter" stroke-opacity="1" flood-color="rgb(0, 0, 0)" dominant-baseline="auto" marker-start="none" marker-mid="none">
  <title><![CDATA[Wireless router]]></title>
  <g transform=" scale(1.000000) ">
    <!--converted by libvisio2svg-->
    <g transform=" translate(284.300800,373.847200) ">
      <!--emf-blob start-->
      <g transform="translate(-340.1017, 488.0106)">
        <path stroke-linecap="butt" fill="none" stroke-linejoin="miter" d="M 375.5290,-467.6399 L 375.5290,-486.8297 " stroke="#0D6E9C" stroke-width="1px" stroke-miterlimit="3.5427"/>
        <path stroke-linecap="butt" fill="none" stroke-linejoin="miter" d="M 375.5290,-467.9351 L 375.5290,-481.2204 " stroke="#0D6E9C" stroke-width="2.3618" stroke-miterlimit="3.5427"/>
        <path stroke-linecap="butt" fill="#000000" stroke-linejoin="miter" d="M 376.1195,-485.0583 L 374.9386,-485.0583 L 374.9386,-487.4201 L 376.1195,-487.4201 L 376.1195,-485.0583 Z " stroke="#0D6E9C" stroke-width="1.1809" stroke-miterlimit="3.5427"/>
        <path stroke-linecap="butt" fill="none" stroke-linejoin="miter" d="M 346.8920,-467.6399 L 346.8920,-486.8297 " stroke="#0D6E9C" stroke-width="1px" stroke-miterlimit="3.5427"/>
        <path stroke-linecap="butt" fill="none" stroke-linejoin="miter" d="M 346.8920,-467.9351 L 346.8920,-481.2204 " stroke="#0D6E9C" stroke-width="2.3618" stroke-miterlimit="3.5427"/>
        <path stroke-linecap="butt" fill="#000000" stroke-linejoin="miter" d="M 347.4824,-485.0583 L 346.3015,-485.0583 L 346.3015,-487.4201 L 347.4824,-487.4201 L 347.4824,-485.0583 Z " stroke="#0D6E9C" stroke-width="1.1809" stroke-miterlimit="3.5427"/>
        <path stroke-linecap="butt" fill="#0D6E9C" stroke-linejoin="miter" d="M 383.7954,-465.2781 C 383.7954,-460.5544 374.0529,-456.7165 361.9486,-456.7165 C 349.8442,-456.7165 340.1017,-460.5544 340.1017,-465.2781 C 340.1017,-452.8785 340.1017,-452.8785 340.1017,-452.8785 C 340.1017,-448.1549 349.8442,-444.3170 361.9486,-444.3170 C 374.0529,-444.3170 383.7954,-448.1549 383.7954,-452.8785 Z " stroke="#FFFFFF" stroke-width="1px" stroke-miterlimit="3.5427"/>
        <path stroke-linecap="butt" fill="#0D6E9C" stroke-linejoin="miter" d="M 361.9486,-456.7165 C 374.0529,-456.7165 383.7954,-460.5544 383.7954,-465.2781 C 383.7954,-469.7065 374.0529,-473.5444 361.9486,-473.5444 C 349.8442,-473.5444 340.1017,-469.7065 340.1017,-465.2781 C 340.1017,-460.5544 349.8442,-456.7165 361.9486,-456.7165 Z " stroke="#FFFFFF" stroke-width="1px" stroke-miterlimit="3.5427"/>
        <path fill="#FFFFFF" d="M 356.9297,-468.5256 L 358.7011,-465.8685 L 351.9108,-464.0972 L 353.3870,-465.5733 L 343.0540,-467.3447 L 345.7111,-469.1160 L 355.7488,-467.6399 L 356.9297,-468.5256 Z " stroke-width="1px" stroke="#FFFFFF"/>
        <path fill="#FFFFFF" d="M 366.6722,-462.0306 L 365.1961,-464.6876 L 371.3958,-465.8685 L 370.5101,-464.9829 L 380.5479,-463.2115 L 378.1861,-461.4401 L 367.8531,-463.2115 L 366.6722,-462.0306 Z " stroke-width="1px" stroke="#FFFFFF"/>
        <path fill="#FFFFFF" d="M 363.1295,-470.0017 L 369.9197,-471.7731 L 370.2149,-468.8208 L 368.4436,-469.1160 L 365.1961,-466.4590 L 361.9486,-466.7542 L 365.1961,-469.7065 L 363.1295,-470.0017 Z " stroke-width="1px" stroke="#FFFFFF"/>
        <path fill="#FFFFFF" d="M 360.1772,-459.3735 L 353.6822,-458.1926 L 353.3870,-461.1449 L 355.4536,-460.8497 L 358.9963,-463.8019 L 362.2438,-463.2115 L 358.4058,-459.9640 L 360.1772,-459.3735 Z " stroke-width="1px" stroke="#FFFFFF"/>
      </g>
      <!--emf-blob end-->
    </g>
  </g>
</svg>
      </g>
    </g>
    <g text-rendering="geometricPrecision" stroke-miterlimit="1.45" shape-rendering="geometricPrecision" font-family="sans-serif" transform="matrix(1,0,0,1,-623,33)" stroke-linecap="butt">
      <text x="640.5659" xml:space="preserve" y="255.4991" clip-path="url(#clipPath2)" stroke="none">Wireless router/modem</text>
    </g>
    <g text-rendering="geometricPrecision" stroke-miterlimit="1.45" shape-rendering="geometricPrecision" font-family="sans-serif" transform="matrix(1,0,0,1,-623,33)" stroke-linecap="butt">
      <text x="665.2573" xml:space="preserve" y="269.4678" clip-path="url(#clipPath2)" stroke="none">192.168.1.1/24</text>
    </g>
    <g text-rendering="geometricPrecision" shape-rendering="geometricPrecision" transform="matrix(1.6753,0,0,1.6754,-282.1309,-191.8228)">
      <g clip-path="url(#clipPath5)">
        <svg opacity="1" writing-mode="lr-tb" stop-color="rgb(0, 0, 0)" shape-rendering="auto" glyph-orientation-horizontal="0deg" color-profile="auto" lighting-color="rgb(255, 255, 255)" color="rgb(0, 0, 0)" font-weight="400" alignment-baseline="auto" font-style="normal" version="1.1" color-interpolation-filters="linearrgb" text-anchor="start" stroke-linecap="butt" color-interpolation="srgb" font-variant="normal" word-spacing="normal" fill-opacity="1" text-rendering="auto" clip-path="none" text-decoration="none" letter-spacing="normal" glyph-orientation-vertical="auto" display="inline" font-size-adjust="none" fill="rgb(0, 0, 0)" overflow="visible" font-stretch="normal" stroke-dasharray="none" stroke-miterlimit="4" stop-opacity="1" color-rendering="auto" font-size="12" mask="none" direction="ltr" baseline-shift="baseline" pointer-events="visiblepainted" enable-background="accumulate" fill-rule="nonzero" image-rendering="auto" stroke-dashoffset="0" width="612.0000000000" marker-end="none" clip="auto" cursor="auto" stroke="none" filter="none" visibility="visible" kerning="auto" stroke-width="1" font-family="&quot;Arial&quot;,&quot;Helvetica&quot;,sans-serif" flood-opacity="1" clip-rule="nonzero" src="none" height="792.0000000000" unicode-bidi="normal" stroke-linejoin="miter" stroke-opacity="1" flood-color="rgb(0, 0, 0)" dominant-baseline="auto" marker-start="none" marker-mid="none">
  <title><![CDATA[Workgroup switch]]></title>
  <g transform=" scale(1.000000) ">
    <!--converted by libvisio2svg-->
    <g transform=" translate(277.214200,381.826800) ">
      <!--emf-blob start-->
      <g transform="translate(-338.3445, 498.6595)">
        <path stroke-linecap="butt" fill="#126D99" stroke-linejoin="miter" d="M 381.1542,-471.2022 L 381.1542,-484.7832 L 338.9349,-484.7832 L 338.9349,-471.2022 L 381.1542,-471.2022 Z " stroke="#FFFFFF" stroke-width="1px" stroke-miterlimit="3.5429"/>
        <path stroke-linecap="butt" fill="#126D99" stroke-linejoin="miter" d="M 338.6397,-484.7832 L 355.7636,-498.6595 L 395.0304,-498.6595 L 380.8589,-484.7832 L 338.6397,-484.7832 Z " stroke="#FFFFFF" stroke-width="1px" stroke-miterlimit="3.5429"/>
        <path stroke-linecap="butt" fill="#126D99" stroke-linejoin="miter" d="M 381.1542,-470.6117 L 395.0304,-485.9642 L 395.0304,-498.6595 L 381.1542,-484.7832 L 381.1542,-470.6117 Z " stroke="#FFFFFF" stroke-width="1px" stroke-miterlimit="3.5429"/>
        <path fill="#FFFFFF" d="M 363.4398,-488.3261 L 362.5541,-487.7356 L 352.2207,-487.7356 L 351.0398,-486.5547 L 348.0874,-487.7356 L 353.9921,-489.5071 L 352.8112,-488.3261 L 363.4398,-488.3261 Z " stroke-width="1px" stroke="#FFFFFF"/>
        <path fill="#FFFFFF" d="M 371.7065,-493.6404 L 370.8208,-492.7547 L 360.4874,-492.7547 L 359.3065,-491.8690 L 356.3541,-493.0499 L 362.2589,-494.5261 L 361.0779,-493.6404 L 371.7065,-493.6404 Z " stroke-width="1px" stroke="#FFFFFF"/>
        <path fill="#FFFFFF" d="M 365.2112,-490.0975 L 366.0970,-490.6880 L 376.7256,-490.6880 L 377.6113,-491.8690 L 380.5637,-490.6880 L 374.9541,-488.9166 L 375.8399,-490.0975 L 365.2112,-490.0975 Z " stroke-width="1px" stroke="#FFFFFF"/>
        <path fill="#FFFFFF" d="M 370.8208,-495.4119 L 371.7065,-496.0023 L 382.0399,-496.0023 L 383.2209,-497.1833 L 386.1732,-495.7071 L 380.2685,-494.2309 L 381.4494,-495.4119 L 370.8208,-495.4119 Z " stroke-width="1px" stroke="#FFFFFF"/>
      </g>
      <!--emf-blob end-->
    </g>
  </g>
</svg>
      </g>
    </g>
    <g text-rendering="geometricPrecision" stroke-miterlimit="1.45" shape-rendering="geometricPrecision" font-family="sans-serif" transform="matrix(1,0,0,1,-623,33)" stroke-linecap="butt">
      <text x="774.7666" xml:space="preserve" y="484.0648" clip-path="url(#clipPath2)" stroke="none">Unmanged Gigabit Switch</text>
    </g>
    <g text-rendering="geometricPrecision" shape-rendering="geometricPrecision" transform="matrix(2.8302,0,0,2.9358,-739.4348,-500.7652)">
      <g clip-path="url(#clipPath6)">
        <svg opacity="1" writing-mode="lr-tb" stop-color="rgb(0, 0, 0)" shape-rendering="auto" glyph-orientation-horizontal="0deg" color-profile="auto" lighting-color="rgb(255, 255, 255)" color="rgb(0, 0, 0)" font-weight="400" alignment-baseline="auto" font-style="normal" version="1.1" color-interpolation-filters="linearrgb" text-anchor="start" stroke-linecap="butt" color-interpolation="srgb" font-variant="normal" word-spacing="normal" fill-opacity="1" text-rendering="auto" clip-path="none" text-decoration="none" letter-spacing="normal" glyph-orientation-vertical="auto" display="inline" font-size-adjust="none" fill="rgb(0, 0, 0)" overflow="visible" font-stretch="normal" stroke-dasharray="none" stroke-miterlimit="4" stop-opacity="1" color-rendering="auto" font-size="12" mask="none" direction="ltr" baseline-shift="baseline" pointer-events="visiblepainted" enable-background="accumulate" fill-rule="nonzero" image-rendering="auto" stroke-dashoffset="0" width="612.0000000000" marker-end="none" clip="auto" cursor="auto" stroke="none" filter="none" visibility="visible" kerning="auto" stroke-width="1" font-family="&quot;Arial&quot;,&quot;Helvetica&quot;,sans-serif" flood-opacity="1" clip-rule="nonzero" src="none" height="792.0000000000" unicode-bidi="normal" stroke-linejoin="miter" stroke-opacity="1" flood-color="rgb(0, 0, 0)" dominant-baseline="auto" marker-start="none" marker-mid="none">
  <title><![CDATA[PC]]></title>
  <g transform=" scale(1.000000) ">
    <!--converted by libvisio2svg-->
    <g transform=" translate(283.407900,376.072400) ">
      <!--emf-blob start-->
      <g transform="translate(-340.0969, 500.4029)">
        <path stroke-linecap="butt" fill="#0F73A0" stroke-linejoin="miter" d="M 378.1806,-466.7475 L 378.1806,-473.8329 L 340.9825,-473.8329 L 340.9825,-466.7475 L 378.1806,-466.7475 Z " stroke="#FFFFFF" stroke-width="1px" stroke-miterlimit="3.5427"/>
        <path fill="#0B719F" d="M 366.6669,-469.9950 L 376.1141,-469.9950 Z " stroke-width="1px" stroke="#0B719F"/>
        <path stroke-linecap="butt" fill="none" stroke-linejoin="miter" d="M 366.6669,-469.9950 L 376.1141,-469.9950 " stroke="#FFFFFF" stroke-width="1px" stroke-miterlimit="3.5427"/>
        <path fill="#0B719F" d="M 366.6669,-470.2902 L 376.1141,-470.2902 Z " stroke-width="1px" stroke="#0B719F"/>
        <path stroke-linecap="butt" fill="none" stroke-linejoin="miter" d="M 366.6669,-470.2902 L 376.1141,-470.2902 " stroke="#FFFFFF" stroke-width="1px" stroke-miterlimit="3.5427"/>
        <path stroke-linecap="butt" fill="#0F73A0" stroke-linejoin="miter" d="M 384.3803,-473.5376 L 384.3803,-479.7373 L 378.1806,-473.8329 L 378.1806,-466.7475 L 384.3803,-473.5376 Z " stroke="#FFFFFF" stroke-width="1px" stroke-miterlimit="3.5427"/>
        <path stroke-linecap="butt" fill="#0F73A0" stroke-linejoin="miter" d="M 371.6857,-461.1383 L 371.6857,-462.6144 L 374.9332,-467.3380 L 374.9332,-464.3857 L 371.6857,-461.1383 Z " stroke="#FFFFFF" stroke-width="1px" stroke-miterlimit="3.5427"/>
        <path stroke-linecap="butt" fill="#0F73A0" stroke-linejoin="miter" d="M 371.6857,-462.6144 L 371.6857,-461.1383 L 341.8682,-461.1383 L 341.8682,-462.6144 L 371.6857,-462.6144 Z " stroke="#FFFFFF" stroke-width="1px" stroke-miterlimit="3.5427"/>
        <path stroke-linecap="butt" fill="#0F73A0" stroke-linejoin="miter" d="M 371.6857,-462.6144 L 341.8682,-462.6144 L 345.1156,-467.3380 L 374.9332,-467.3380 L 371.6857,-462.6144 Z " stroke="#FFFFFF" stroke-width="1px" stroke-miterlimit="3.5427"/>
        <path stroke-linecap="butt" fill="#0F73A0" stroke-linejoin="miter" d="M 384.3803,-479.7373 L 347.1822,-479.7373 L 340.9825,-473.8329 L 378.1806,-473.8329 L 384.3803,-479.7373 Z " stroke="#FFFFFF" stroke-width="1px" stroke-miterlimit="3.5427"/>
        <path stroke-linecap="butt" fill="#0F73A0" stroke-linejoin="miter" d="M 373.1618,-477.3755 L 373.1618,-495.9746 L 347.7727,-495.9746 L 347.7727,-477.3755 L 373.1618,-477.3755 Z " stroke="#FFFFFF" stroke-width="1px" stroke-miterlimit="3.5427"/>
        <path stroke-linecap="butt" fill="#0F73A0" stroke-linejoin="miter" d="M 349.8392,-491.8415 C 349.8392,-493.9080 351.6105,-494.2032 351.6105,-494.2032 C 351.6105,-494.2032 366.9621,-494.2032 368.7335,-494.2032 C 371.0953,-494.2032 371.0953,-491.8415 371.0953,-491.8415 C 371.0953,-491.8415 371.0953,-482.6895 371.0953,-481.2134 C 371.0953,-480.0325 369.0287,-479.4421 369.0287,-479.4421 C 369.0287,-479.4421 353.6771,-479.4421 351.9058,-479.4421 C 350.4297,-479.4421 349.8392,-481.2134 349.8392,-481.2134 Z " stroke="#FFFFFF" stroke-width="1px" stroke-miterlimit="3.5427"/>
        <path stroke-linecap="butt" fill="#0F73A0" stroke-linejoin="miter" d="M 377.5902,-500.1077 L 351.9058,-500.1077 L 347.7727,-495.9746 L 373.1618,-495.9746 L 377.5902,-500.1077 Z " stroke="#FFFFFF" stroke-width="1px" stroke-miterlimit="3.5427"/>
        <path stroke-linecap="butt" fill="#0B719F" stroke-linejoin="miter" d="M 377.5902,-481.2134 L 377.5902,-500.1077 L 373.1618,-495.9746 L 373.1618,-477.3755 L 377.5902,-481.2134 Z " stroke="#FFFFFF" stroke-width="1px" stroke-miterlimit="3.5427"/>
      </g>
      <!--emf-blob end-->
    </g>
  </g>
</svg>
      </g>
    </g>
    <g text-rendering="geometricPrecision" stroke-miterlimit="1.45" shape-rendering="geometricPrecision" font-family="sans-serif" transform="matrix(1,0,0,1,-623,33)" stroke-linecap="butt">
      <text x="714.0225" xml:space="preserve" y="706.2659" clip-path="url(#clipPath2)" stroke="none">Computer 1</text>
      <text x="696.0225" xml:space="preserve" y="720.2347" clip-path="url(#clipPath2)" stroke="none">192.168.1.104/24</text>
    </g>
    <g text-rendering="geometricPrecision" shape-rendering="geometricPrecision" transform="matrix(2.6124,0,0,2.3704,-569.8916,-847.7356)">
      <g clip-path="url(#clipPath7)">
        <svg opacity="1" writing-mode="lr-tb" stop-color="rgb(0, 0, 0)" shape-rendering="auto" glyph-orientation-horizontal="0deg" color-profile="auto" lighting-color="rgb(255, 255, 255)" color="rgb(0, 0, 0)" font-weight="400" alignment-baseline="auto" font-style="normal" version="1.1" color-interpolation-filters="linearrgb" text-anchor="start" stroke-linecap="butt" color-interpolation="srgb" font-variant="normal" word-spacing="normal" fill-opacity="1" text-rendering="auto" clip-path="none" text-decoration="none" letter-spacing="normal" glyph-orientation-vertical="auto" display="inline" font-size-adjust="none" fill="rgb(0, 0, 0)" overflow="visible" font-stretch="normal" stroke-dasharray="none" stroke-miterlimit="4" stop-opacity="1" color-rendering="auto" font-size="12" mask="none" direction="ltr" baseline-shift="baseline" pointer-events="visiblepainted" enable-background="accumulate" fill-rule="nonzero" image-rendering="auto" stroke-dashoffset="0" width="612.0000000000" marker-end="none" clip="auto" cursor="auto" stroke="none" filter="none" visibility="visible" kerning="auto" stroke-width="1" font-family="&quot;Arial&quot;,&quot;Helvetica&quot;,sans-serif" flood-opacity="1" clip-rule="nonzero" src="none" height="792.0000000000" unicode-bidi="normal" stroke-linejoin="miter" stroke-opacity="1" flood-color="rgb(0, 0, 0)" dominant-baseline="auto" marker-start="none" marker-mid="none">
  <title><![CDATA[Microwebserver]]></title>
  <g transform=" scale(1.000000) ">
    <!--converted by libvisio2svg-->
    <g transform=" translate(284.300800,380.948000) ">
      <!--emf-blob start-->
      <g transform="translate(-339.9970, 493.1727)">
        <path stroke-linecap="butt" fill="#0E6F9C" stroke-linejoin="miter" d="M 383.3820,-484.3186 C 383.3820,-479.5964 373.6425,-476.0548 361.8371,-476.0548 C 350.0316,-476.0548 340.2921,-479.5964 340.2921,-484.3186 C 340.2921,-471.9229 340.2921,-471.9229 340.2921,-471.9229 C 340.2921,-467.4959 350.0316,-463.6591 361.8371,-463.6591 C 373.6425,-463.6591 383.3820,-467.4959 383.3820,-471.9229 Z " stroke="#FFFFFF" stroke-width="1px" stroke-miterlimit="3.5416"/>
        <path stroke-linecap="butt" fill="#0E6F9C" stroke-linejoin="miter" d="M 383.3820,-484.3186 C 383.3820,-479.5964 373.6425,-476.0548 361.8371,-476.0548 C 350.0316,-476.0548 340.2921,-479.5964 340.2921,-484.3186 C 340.2921,-471.9229 340.2921,-471.9229 340.2921,-471.9229 C 340.2921,-467.4959 350.0316,-463.6591 361.8371,-463.6591 C 373.6425,-463.6591 383.3820,-467.4959 383.3820,-471.9229 Z " stroke="#FFFFFF" stroke-width="1px" stroke-miterlimit="3.5416"/>
        <path stroke-linecap="butt" fill="#0E6F9C" stroke-linejoin="miter" d="M 361.8371,-476.0548 C 373.6425,-476.0548 383.3820,-479.5964 383.3820,-484.3186 C 383.3820,-488.7457 373.6425,-492.5824 361.8371,-492.5824 C 350.0316,-492.5824 340.2921,-488.7457 340.2921,-484.3186 C 340.2921,-479.5964 350.0316,-476.0548 361.8371,-476.0548 Z " stroke="#FFFFFF" stroke-width="1px" stroke-miterlimit="3.5416"/>
        <path fill="#0C6D9C" d="M 371.5766,-481.6624 L 376.2987,-479.8916 L 371.5766,-477.8256 L 371.5766,-479.3013 L 348.2608,-479.3013 L 348.2608,-481.0721 L 371.5766,-481.0721 L 371.5766,-481.6624 Z " stroke-width="1px" stroke="#0C6D9C"/>
        <path fill="#FFFFFF" d="M 352.9830,-486.6797 C 353.8684,-486.6797 353.8684,-486.6797 353.8684,-486.6797 C 354.7538,-484.0235 354.7538,-483.7284 354.7538,-483.1381 C 354.7538,-483.1381 354.7538,-483.1381 354.7538,-483.1381 C 354.7538,-483.4332 355.0489,-484.0235 355.3441,-486.6797 C 356.5246,-486.6797 356.5246,-486.6797 356.5246,-486.6797 C 357.1149,-484.0235 357.1149,-483.7284 357.1149,-483.1381 C 357.1149,-483.1381 357.1149,-483.1381 357.1149,-483.1381 C 357.4100,-483.4332 357.4100,-484.0235 358.0003,-486.6797 C 358.8857,-486.6797 358.8857,-486.6797 358.8857,-486.6797 C 357.7052,-481.6624 357.7052,-481.6624 357.7052,-481.6624 C 356.8198,-481.6624 356.8198,-481.6624 356.8198,-481.6624 C 356.2295,-484.0235 356.2295,-484.6138 355.9343,-485.4992 C 355.9343,-485.4992 355.9343,-485.4992 355.9343,-485.4992 C 355.9343,-484.6138 355.6392,-484.3186 355.3441,-481.6624 C 354.1635,-481.6624 354.1635,-481.6624 354.1635,-481.6624 Z " stroke="none"/>
        <path fill="#FFFFFF" d="M 359.1808,-486.6797 C 360.3614,-486.6797 360.3614,-486.6797 360.3614,-486.6797 C 360.9517,-484.0235 360.9517,-483.7284 360.9517,-483.1381 C 360.9517,-483.1381 360.9517,-483.1381 360.9517,-483.1381 C 361.2468,-483.4332 361.2468,-484.0235 361.8371,-486.6797 C 362.7225,-486.6797 362.7225,-486.6797 362.7225,-486.6797 C 363.3128,-484.0235 363.3128,-483.7284 363.6079,-483.1381 C 363.6079,-483.1381 363.6079,-483.1381 363.6079,-483.1381 C 363.6079,-483.4332 363.6079,-484.0235 364.1982,-486.6797 C 365.3787,-486.6797 365.3787,-486.6797 365.3787,-486.6797 C 363.9030,-481.6624 363.9030,-481.6624 363.9030,-481.6624 C 363.0176,-481.6624 363.0176,-481.6624 363.0176,-481.6624 C 362.4273,-484.0235 362.4273,-484.6138 362.1322,-485.4992 C 362.1322,-485.4992 362.1322,-485.4992 362.1322,-485.4992 C 362.1322,-484.6138 362.1322,-484.3186 361.5419,-481.6624 C 360.6565,-481.6624 360.6565,-481.6624 360.6565,-481.6624 Z " stroke="none"/>
        <path fill="#FFFFFF" d="M 365.3787,-486.6797 C 366.5593,-486.6797 366.5593,-486.6797 366.5593,-486.6797 C 367.1495,-484.0235 367.1495,-483.7284 367.4447,-483.1381 C 367.4447,-483.1381 367.4447,-483.1381 367.4447,-483.1381 C 367.4447,-483.4332 367.4447,-484.0235 368.0349,-486.6797 C 368.9203,-486.6797 368.9203,-486.6797 368.9203,-486.6797 C 369.5106,-484.0235 369.5106,-483.7284 369.8058,-483.1381 C 369.8058,-483.1381 369.8058,-483.1381 369.8058,-483.1381 C 369.8058,-483.4332 369.8058,-484.0235 370.6912,-486.6797 C 371.5766,-486.6797 371.5766,-486.6797 371.5766,-486.6797 C 370.1009,-481.6624 370.1009,-481.6624 370.1009,-481.6624 C 369.2155,-481.6624 369.2155,-481.6624 369.2155,-481.6624 C 368.6252,-484.0235 368.6252,-484.6138 368.6252,-485.4992 C 368.6252,-485.4992 368.6252,-485.4992 368.6252,-485.4992 C 368.3301,-484.6138 368.3301,-484.3186 367.7398,-481.6624 C 366.8544,-481.6624 366.8544,-481.6624 366.8544,-481.6624 Z " stroke="none"/>
      </g>
      <!--emf-blob end-->
    </g>
  </g>
</svg>
      </g>
    </g>
    <g text-rendering="geometricPrecision" shape-rendering="geometricPrecision" transform="matrix(2.8302,0,0,2.9358,-506.0928,-500.7652)">
      <g clip-path="url(#clipPath8)">
        <svg opacity="1" writing-mode="lr-tb" stop-color="rgb(0, 0, 0)" shape-rendering="auto" glyph-orientation-horizontal="0deg" color-profile="auto" lighting-color="rgb(255, 255, 255)" color="rgb(0, 0, 0)" font-weight="400" alignment-baseline="auto" font-style="normal" version="1.1" color-interpolation-filters="linearrgb" text-anchor="start" stroke-linecap="butt" color-interpolation="srgb" font-variant="normal" word-spacing="normal" fill-opacity="1" text-rendering="auto" clip-path="none" text-decoration="none" letter-spacing="normal" glyph-orientation-vertical="auto" display="inline" font-size-adjust="none" fill="rgb(0, 0, 0)" overflow="visible" font-stretch="normal" stroke-dasharray="none" stroke-miterlimit="4" stop-opacity="1" color-rendering="auto" font-size="12" mask="none" direction="ltr" baseline-shift="baseline" pointer-events="visiblepainted" enable-background="accumulate" fill-rule="nonzero" image-rendering="auto" stroke-dashoffset="0" width="612.0000000000" marker-end="none" clip="auto" cursor="auto" stroke="none" filter="none" visibility="visible" kerning="auto" stroke-width="1" font-family="&quot;Arial&quot;,&quot;Helvetica&quot;,sans-serif" flood-opacity="1" clip-rule="nonzero" src="none" height="792.0000000000" unicode-bidi="normal" stroke-linejoin="miter" stroke-opacity="1" flood-color="rgb(0, 0, 0)" dominant-baseline="auto" marker-start="none" marker-mid="none">
  <title><![CDATA[PC]]></title>
  <g transform=" scale(1.000000) ">
    <!--converted by libvisio2svg-->
    <g transform=" translate(283.407900,376.072400) ">
      <!--emf-blob start-->
      <g transform="translate(-340.0969, 500.4029)">
        <path stroke-linecap="butt" fill="#0F73A0" stroke-linejoin="miter" d="M 378.1806,-466.7475 L 378.1806,-473.8329 L 340.9825,-473.8329 L 340.9825,-466.7475 L 378.1806,-466.7475 Z " stroke="#FFFFFF" stroke-width="1px" stroke-miterlimit="3.5427"/>
        <path fill="#0B719F" d="M 366.6669,-469.9950 L 376.1141,-469.9950 Z " stroke-width="1px" stroke="#0B719F"/>
        <path stroke-linecap="butt" fill="none" stroke-linejoin="miter" d="M 366.6669,-469.9950 L 376.1141,-469.9950 " stroke="#FFFFFF" stroke-width="1px" stroke-miterlimit="3.5427"/>
        <path fill="#0B719F" d="M 366.6669,-470.2902 L 376.1141,-470.2902 Z " stroke-width="1px" stroke="#0B719F"/>
        <path stroke-linecap="butt" fill="none" stroke-linejoin="miter" d="M 366.6669,-470.2902 L 376.1141,-470.2902 " stroke="#FFFFFF" stroke-width="1px" stroke-miterlimit="3.5427"/>
        <path stroke-linecap="butt" fill="#0F73A0" stroke-linejoin="miter" d="M 384.3803,-473.5376 L 384.3803,-479.7373 L 378.1806,-473.8329 L 378.1806,-466.7475 L 384.3803,-473.5376 Z " stroke="#FFFFFF" stroke-width="1px" stroke-miterlimit="3.5427"/>
        <path stroke-linecap="butt" fill="#0F73A0" stroke-linejoin="miter" d="M 371.6857,-461.1383 L 371.6857,-462.6144 L 374.9332,-467.3380 L 374.9332,-464.3857 L 371.6857,-461.1383 Z " stroke="#FFFFFF" stroke-width="1px" stroke-miterlimit="3.5427"/>
        <path stroke-linecap="butt" fill="#0F73A0" stroke-linejoin="miter" d="M 371.6857,-462.6144 L 371.6857,-461.1383 L 341.8682,-461.1383 L 341.8682,-462.6144 L 371.6857,-462.6144 Z " stroke="#FFFFFF" stroke-width="1px" stroke-miterlimit="3.5427"/>
        <path stroke-linecap="butt" fill="#0F73A0" stroke-linejoin="miter" d="M 371.6857,-462.6144 L 341.8682,-462.6144 L 345.1156,-467.3380 L 374.9332,-467.3380 L 371.6857,-462.6144 Z " stroke="#FFFFFF" stroke-width="1px" stroke-miterlimit="3.5427"/>
        <path stroke-linecap="butt" fill="#0F73A0" stroke-linejoin="miter" d="M 384.3803,-479.7373 L 347.1822,-479.7373 L 340.9825,-473.8329 L 378.1806,-473.8329 L 384.3803,-479.7373 Z " stroke="#FFFFFF" stroke-width="1px" stroke-miterlimit="3.5427"/>
        <path stroke-linecap="butt" fill="#0F73A0" stroke-linejoin="miter" d="M 373.1618,-477.3755 L 373.1618,-495.9746 L 347.7727,-495.9746 L 347.7727,-477.3755 L 373.1618,-477.3755 Z " stroke="#FFFFFF" stroke-width="1px" stroke-miterlimit="3.5427"/>
        <path stroke-linecap="butt" fill="#0F73A0" stroke-linejoin="miter" d="M 349.8392,-491.8415 C 349.8392,-493.9080 351.6105,-494.2032 351.6105,-494.2032 C 351.6105,-494.2032 366.9621,-494.2032 368.7335,-494.2032 C 371.0953,-494.2032 371.0953,-491.8415 371.0953,-491.8415 C 371.0953,-491.8415 371.0953,-482.6895 371.0953,-481.2134 C 371.0953,-480.0325 369.0287,-479.4421 369.0287,-479.4421 C 369.0287,-479.4421 353.6771,-479.4421 351.9058,-479.4421 C 350.4297,-479.4421 349.8392,-481.2134 349.8392,-481.2134 Z " stroke="#FFFFFF" stroke-width="1px" stroke-miterlimit="3.5427"/>
        <path stroke-linecap="butt" fill="#0F73A0" stroke-linejoin="miter" d="M 377.5902,-500.1077 L 351.9058,-500.1077 L 347.7727,-495.9746 L 373.1618,-495.9746 L 377.5902,-500.1077 Z " stroke="#FFFFFF" stroke-width="1px" stroke-miterlimit="3.5427"/>
        <path stroke-linecap="butt" fill="#0B719F" stroke-linejoin="miter" d="M 377.5902,-481.2134 L 377.5902,-500.1077 L 373.1618,-495.9746 L 373.1618,-477.3755 L 377.5902,-481.2134 Z " stroke="#FFFFFF" stroke-width="1px" stroke-miterlimit="3.5427"/>
      </g>
      <!--emf-blob end-->
    </g>
  </g>
</svg>
      </g>
    </g>
    <g text-rendering="geometricPrecision" stroke-miterlimit="1.45" shape-rendering="geometricPrecision" font-family="sans-serif" transform="matrix(1,0,0,1,-623,33)" stroke-linecap="butt">
      <text x="947.3646" xml:space="preserve" y="706.2659" clip-path="url(#clipPath2)" stroke="none">Computer 2</text>
      <text x="929.3646" xml:space="preserve" y="720.2347" clip-path="url(#clipPath2)" stroke="none">192.168.1.105/24</text>
    </g>
    <g text-rendering="geometricPrecision" shape-rendering="geometricPrecision" transform="matrix(3.6553,0,0,3.6554,-590.5597,-1060.1155)">
      <g clip-path="url(#clipPath9)">
        <svg opacity="1" writing-mode="lr-tb" stop-color="rgb(0, 0, 0)" shape-rendering="auto" glyph-orientation-horizontal="0deg" color-profile="auto" lighting-color="rgb(255, 255, 255)" color="rgb(0, 0, 0)" font-weight="400" alignment-baseline="auto" font-style="normal" version="1.1" color-interpolation-filters="linearrgb" text-anchor="start" stroke-linecap="butt" color-interpolation="srgb" font-variant="normal" word-spacing="normal" fill-opacity="1" text-rendering="auto" clip-path="none" text-decoration="none" letter-spacing="normal" glyph-orientation-vertical="auto" display="inline" font-size-adjust="none" fill="rgb(0, 0, 0)" overflow="visible" font-stretch="normal" stroke-dasharray="none" stroke-miterlimit="4" stop-opacity="1" color-rendering="auto" font-size="12" mask="none" direction="ltr" baseline-shift="baseline" pointer-events="visiblepainted" enable-background="accumulate" fill-rule="nonzero" image-rendering="auto" stroke-dashoffset="0" width="612.0000000000" marker-end="none" clip="auto" cursor="auto" stroke="none" filter="none" visibility="visible" kerning="auto" stroke-width="1" font-family="&quot;Arial&quot;,&quot;Helvetica&quot;,sans-serif" flood-opacity="1" clip-rule="nonzero" src="none" height="792.0000000000" unicode-bidi="normal" stroke-linejoin="miter" stroke-opacity="1" flood-color="rgb(0, 0, 0)" dominant-baseline="auto" marker-start="none" marker-mid="none">
  <title><![CDATA[Fileserver]]></title>
  <g transform=" scale(1.000000) ">
    <!--converted by libvisio2svg-->
    <g transform=" translate(293.598400,378.283500) ">
      <!--emf-blob start-->
      <g transform="translate(-350.7867, 501.3769)">
        <path fill="#036C9B" d="M 369.6843,-495.4714 L 351.6725,-495.4714 L 351.6725,-466.5345 L 369.6843,-466.5345 Z " stroke-width="1px" stroke="#036C9B"/>
        <path stroke-linecap="butt" fill="none" stroke-linejoin="miter" d="M 369.6843,-495.4714 L 351.6725,-495.4714 L 351.6725,-466.5345 L 369.6843,-466.5345 " stroke="#FFFFFF" stroke-width="1px" stroke-miterlimit="3.5433"/>
        <path stroke-linecap="butt" fill="#036C9B" stroke-linejoin="miter" d="M 369.6843,-466.5345 L 375.5898,-472.1447 L 375.5898,-501.3769 L 357.5780,-501.3769 L 351.6725,-495.4714 L 369.6843,-495.4714 L 369.6843,-466.5345 Z " stroke="#FFFFFF" stroke-width="1px" stroke-miterlimit="3.5433"/>
        <path fill="#036C9B" d="M 369.6843,-495.4714 L 375.5898,-501.3769 Z " stroke-width="1px" stroke="#036C9B"/>
        <path stroke-linecap="butt" fill="none" stroke-linejoin="miter" d="M 369.6843,-495.4714 L 375.5898,-501.3769 " stroke="#FFFFFF" stroke-width="1px" stroke-miterlimit="3.5433"/>
        <path stroke-linecap="butt" fill="none" stroke-linejoin="miter" d="M 351.9678,-484.2510 L 369.6843,-484.2510 " stroke="#FFFFFF" stroke-width="1px" stroke-miterlimit="3.5433"/>
        <path stroke-linecap="butt" fill="none" stroke-linejoin="miter" d="M 351.9678,-470.9636 L 369.6843,-470.9636 " stroke="#FFFFFF" stroke-width="1px" stroke-miterlimit="3.5433"/>
        <path stroke-linecap="butt" fill="none" stroke-linejoin="miter" d="M 356.1017,-491.0423 L 361.1213,-491.0423 " stroke="#FFFFFF" stroke-width="1px" stroke-miterlimit="3.5433"/>
        <path stroke-linecap="butt" fill="none" stroke-linejoin="miter" d="M 363.1882,-489.2707 L 363.1882,-492.8140 L 354.0347,-492.8140 L 354.0347,-489.2707 L 363.1882,-489.2707 Z " stroke="#FFFFFF" stroke-width="1px" stroke-miterlimit="3.5433"/>
      </g>
      <!--emf-blob end-->
    </g>
  </g>
</svg>
      </g>
    </g>
    <g text-rendering="geometricPrecision" stroke-miterlimit="1.45" shape-rendering="geometricPrecision" font-family="sans-serif" transform="matrix(1,0,0,1,-623,33)" stroke-linecap="butt">
      <text x="1109.2095" xml:space="preserve" y="438.4027" clip-path="url(#clipPath2)" stroke="none">Melroy-Server</text>
      <text x="1101.5396" xml:space="preserve" y="452.3715" clip-path="url(#clipPath2)" stroke="none">192.168.1.20/24</text>
    </g>
    <g text-rendering="geometricPrecision" shape-rendering="geometricPrecision" transform="matrix(2.3395,0,0,2.3396,-186.4312,-732.2793)">
      <g clip-path="url(#clipPath10)">
        <svg opacity="1" writing-mode="lr-tb" stop-color="rgb(0, 0, 0)" shape-rendering="auto" glyph-orientation-horizontal="0deg" color-profile="auto" lighting-color="rgb(255, 255, 255)" color="rgb(0, 0, 0)" font-weight="400" alignment-baseline="auto" font-style="normal" version="1.1" color-interpolation-filters="linearrgb" text-anchor="start" stroke-linecap="butt" color-interpolation="srgb" font-variant="normal" word-spacing="normal" fill-opacity="1" text-rendering="auto" clip-path="none" text-decoration="none" letter-spacing="normal" glyph-orientation-vertical="auto" display="inline" font-size-adjust="none" fill="rgb(0, 0, 0)" overflow="visible" font-stretch="normal" stroke-dasharray="none" stroke-miterlimit="4" stop-opacity="1" color-rendering="auto" font-size="12" mask="none" direction="ltr" baseline-shift="baseline" pointer-events="visiblepainted" enable-background="accumulate" fill-rule="nonzero" image-rendering="auto" stroke-dashoffset="0" width="612.0000000000" marker-end="none" clip="auto" cursor="auto" stroke="none" filter="none" visibility="visible" kerning="auto" stroke-width="1" font-family="&quot;Arial&quot;,&quot;Helvetica&quot;,sans-serif" flood-opacity="1" clip-rule="nonzero" src="none" height="792.0000000000" unicode-bidi="normal" stroke-linejoin="miter" stroke-opacity="1" flood-color="rgb(0, 0, 0)" dominant-baseline="auto" marker-start="none" marker-mid="none">
  <title><![CDATA[Laptop]]></title>
  <g transform=" scale(1.000000) ">
    <!--converted by libvisio2svg-->
    <g transform=" translate(280.318100,378.722800) ">
      <!--emf-blob start-->
      <g transform="translate(-339.1782, 495.0408)">
        <path stroke-linecap="butt" fill="#0F73A0" stroke-linejoin="miter" d="M 388.7708,-494.7456 L 389.9516,-493.2696 L 386.7045,-474.9676 L 385.2285,-475.8531 L 388.7708,-494.7456 Z " stroke="#FFFFFF" stroke-width="1px" stroke-miterlimit="3.5423"/>
        <path stroke-linecap="butt" fill="#000000" stroke-linejoin="miter" d="M 353.3475,-475.8531 L 354.5283,-474.9676 L 386.7045,-474.9676 L 385.2285,-475.8531 L 353.3475,-475.8531 Z " stroke="#FFFFFF" stroke-width="1px" stroke-miterlimit="3.5423"/>
        <path stroke-linecap="butt" fill="#0F73A0" stroke-linejoin="miter" d="M 385.5237,-474.3772 C 385.5237,-471.4252 385.5237,-471.4252 385.5237,-471.4252 C 384.6381,-470.5396 384.6381,-470.5396 384.6381,-470.5396 C 384.6381,-470.5396 382.5718,-469.9493 383.1621,-468.7685 C 374.3063,-460.7982 374.3063,-460.7982 374.3063,-460.7982 C 374.3063,-464.3406 374.3063,-464.3406 374.3063,-464.3406 Z " stroke="#FFFFFF" stroke-width="1px" stroke-miterlimit="3.5423"/>
        <path fill="#0F73A0" d="M 339.7686,-464.3406 L 339.7686,-460.7982 L 374.3063,-460.7982 L 374.3063,-464.3406 L 339.7686,-464.3406 Z " stroke-width="1px" stroke="#0F73A0"/>
        <path stroke-linecap="butt" fill="none" stroke-linejoin="miter" d="M 339.7686,-464.3406 L 339.7686,-460.7982 L 374.3063,-460.7982 L 374.3063,-464.3406 L 339.7686,-464.3406 " stroke="#FFFFFF" stroke-width="1px" stroke-miterlimit="3.5423"/>
        <path stroke-linecap="butt" fill="#0F73A0" stroke-linejoin="miter" d="M 353.6427,-474.3772 L 385.5237,-474.3772 L 374.3063,-464.3406 L 339.7686,-464.3406 L 353.6427,-474.3772 Z " stroke="#FFFFFF" stroke-width="1px" stroke-miterlimit="3.5423"/>
        <path stroke-linecap="butt" fill="#0F73A0" stroke-linejoin="miter" d="M 385.2285,-475.8531 L 388.7708,-494.7456 L 357.4802,-494.7456 L 353.3475,-475.8531 L 385.2285,-475.8531 Z " stroke="#FFFFFF" stroke-width="1px" stroke-miterlimit="3.5423"/>
        <path stroke-linecap="butt" fill="#0F73A0" stroke-linejoin="miter" d="M 382.5718,-478.2147 L 385.2285,-492.3840 L 359.8418,-492.3840 L 356.8899,-478.2147 L 382.5718,-478.2147 Z " stroke="#FFFFFF" stroke-width="1px" stroke-miterlimit="3.5423"/>
        <path fill="none" d="M 354.2331,-474.0820 L 346.2629,-467.5877 " stroke-width="1px" stroke="#FFFFFF" stroke-linecap="butt" stroke-linejoin="round"/>
        <path fill="none" d="M 356.8899,-474.0820 L 348.9196,-467.5877 " stroke-width="1px" stroke="#FFFFFF" stroke-linecap="butt" stroke-linejoin="round"/>
        <path fill="none" d="M 359.5466,-474.0820 L 351.5764,-467.5877 " stroke-width="1px" stroke="#FFFFFF" stroke-linecap="butt" stroke-linejoin="round"/>
        <path fill="none" d="M 362.2033,-474.0820 L 353.9379,-467.5877 " stroke-width="1px" stroke="#FFFFFF" stroke-linecap="butt" stroke-linejoin="round"/>
        <path fill="none" d="M 364.5649,-474.0820 L 356.5947,-467.5877 " stroke-width="1px" stroke="#FFFFFF" stroke-linecap="butt" stroke-linejoin="round"/>
        <path fill="none" d="M 367.2217,-474.0820 L 359.2514,-467.5877 " stroke-width="1px" stroke="#FFFFFF" stroke-linecap="butt" stroke-linejoin="round"/>
        <path fill="none" d="M 369.8784,-474.0820 L 361.9082,-467.5877 " stroke-width="1px" stroke="#FFFFFF" stroke-linecap="butt" stroke-linejoin="round"/>
        <path fill="none" d="M 372.5351,-474.0820 L 364.2697,-467.5877 " stroke-width="1px" stroke="#FFFFFF" stroke-linecap="butt" stroke-linejoin="round"/>
        <path fill="none" d="M 374.8967,-474.0820 L 366.9265,-467.5877 " stroke-width="1px" stroke="#FFFFFF" stroke-linecap="butt" stroke-linejoin="round"/>
        <path fill="none" d="M 377.5534,-474.0820 L 369.5832,-467.5877 " stroke-width="1px" stroke="#FFFFFF" stroke-linecap="butt" stroke-linejoin="round"/>
        <path fill="none" d="M 380.2102,-474.0820 L 372.2400,-467.5877 " stroke-width="1px" stroke="#FFFFFF" stroke-linecap="butt" stroke-linejoin="round"/>
        <path fill="none" d="M 382.8669,-474.0820 L 374.6015,-467.5877 " stroke-width="1px" stroke="#FFFFFF" stroke-linecap="butt" stroke-linejoin="round"/>
        <path fill="none" d="M 347.1484,-468.1781 L 375.7823,-468.1781 " stroke-width="1px" stroke="#FFFFFF" stroke-linecap="butt" stroke-linejoin="round"/>
        <path fill="none" d="M 349.2148,-469.6541 L 377.2583,-469.6541 " stroke-width="1px" stroke="#FFFFFF" stroke-linecap="butt" stroke-linejoin="round"/>
        <path fill="none" d="M 350.9860,-471.1300 L 379.3246,-471.1300 " stroke-width="1px" stroke="#FFFFFF" stroke-linecap="butt" stroke-linejoin="round"/>
        <path fill="none" d="M 352.7571,-472.6060 L 381.0958,-472.6060 " stroke-width="1px" stroke="#FFFFFF" stroke-linecap="butt" stroke-linejoin="round"/>
      </g>
      <!--emf-blob end-->
    </g>
  </g>
</svg>
      </g>
    </g>
    <g text-rendering="geometricPrecision" stroke-miterlimit="1.45" shape-rendering="geometricPrecision" font-family="sans-serif" transform="matrix(1,0,0,1,-623,33)" stroke-linecap="butt">
      <text x="1130.6138" xml:space="preserve" y="220.6534" clip-path="url(#clipPath2)" stroke="none">Laptop</text>
      <text x="1097.7222" xml:space="preserve" y="234.6222" clip-path="url(#clipPath2)" stroke="none">192.168.1.110/24</text>
      <path fill="none" d="M852.875 309.124 L852.875 414.497" clip-path="url(#clipPath2)"/>
      <text x="761.892" xml:space="preserve" y="365.1534" clip-path="url(#clipPath2)" stroke="none">1000BASE-T</text>
      <path fill="none" d="M803.4188 438.4641 L749.5743 438.4641 L749.5743 570.712" clip-path="url(#clipPath2)"/>
      <text x="662.6544" xml:space="preserve" y="492.1784" clip-path="url(#clipPath2)" stroke="none">1000BASE-T</text>
      <path fill="none" d="M852.875 93.3977 L852.875 239.8468" clip-path="url(#clipPath2)"/>
      <text x="802.3174" xml:space="preserve" y="154.6141" clip-path="url(#clipPath2)" stroke="none">(A)DSL</text>
      <path fill="none" d="M900.6562 438.4641 L982.9163 438.4641 L982.9163 438.4641 L982.9163 570.712" clip-path="url(#clipPath2)"/>
      <text x="986.506" xml:space="preserve" y="493.8784" clip-path="url(#clipPath2)" stroke="none">1000BASE-T</text>
      <path fill="none" d="M882.3743 414.5613 L882.3743 354.541 L882.3743 354.541 L882.3743 354.541 L1108.0438 354.541" clip-path="url(#clipPath2)"/>
      <text x="958.4438" xml:space="preserve" y="345.605" clip-path="url(#clipPath2)" stroke="none">10GBASE-T</text>
      <path fill="none" d="M892.3968 245.4553 L1111.2985 174.1505" clip-path="url(#clipPath2)"/>
      <path fill="none" d="M892.3968 245.4553 L1111.2985 174.1505" clip-path="url(#clipPath2)"/>
      <text x="971.3686" xml:space="preserve" y="241.4237" clip-path="url(#clipPath2)" stroke="none">IEEE 802.11ac</text>
    </g>
  </g>
</svg>
